<svg xmlns="http://www.w3.org/2000/svg" xml:space="preserve" width="522.46" height="522.27" viewBox="0 0 138.23 138.18">
  <path d="M125.57 233.11a70.3 70.3 0 0 1-21.1-5.46c-5.04-2.2-11.57-6.11-14.18-8.51-1.26-1.17-1.37-1.36-1.48-2.7-.1-1.2 0-1.6.5-2.34a4.42 4.42 0 0 1 3.33-1.88c.87 0 .87 0 .87-1.49 0-3.87 3.53-5.52 7.1-3.32 1.66 1.02 1.9 1.04 1.9.16 0-1.09.78-2.48 1.66-2.93 1.3-.67 2.38-.55 3.94.43 6.99 4.41 14 7.07 21.03 7.96 2.9.36 9.7.35 12.75-.03 2.53-.3 6.72-1.17 7.64-1.57.33-.14.6-.43.6-.64 0-.4-.3-.53-1.85-.82-3.6-.65-11.08-3.43-16.17-5.99-2.74-1.37-3.22-1.71-3.8-2.7a4.92 4.92 0 0 1 1.37-6.62c1.6-1.13 2.92-1.18 6.05-.2 1.45.44 3.34.97 4.21 1.19 7.05 1.72 17.83 1.68 25.2-.1a32.88 32.88 0 0 0 24.34-23.73c.65-2.4.7-2.98.71-8.02 0-5.96-.34-8.8-1.72-14.2a51.54 51.54 0 0 0-4.66-11.98 55.17 55.17 0 0 0-11.48-15.5c-8.56-8.21-18.65-13.3-30.8-15.53-4.25-.78-14.89-.84-19.05-.12-15.44 2.7-28.01 10.48-37.42 23.19a61.78 61.78 0 0 0-11.01 27.4c-.6 4.34-.41 13.23.37 17.6a57.32 57.32 0 0 0 10.15 23.59c1.9 2.57 2.32 3.5 2.32 5.11a5.22 5.22 0 0 1-5.29 5.16c-2.47 0-3.7-1.02-6.93-5.7-9.74-14.1-13.54-30.68-11.05-48.18a68.9 68.9 0 0 1 3.29-13.01c7.71-22.1 26.11-39.1 48.16-44.52a70.23 70.23 0 0 1 35.2.45 68.91 68.91 0 0 1 47.3 44.94c4.67 14.3 4.72 29.66.15 43.34-4.52 13.49-12.49 24.4-24.36 33.33a70.73 70.73 0 0 1-40.43 14.08c-2.7.06-6 0-7.36-.14zm5.06-46.23c-.46-.36-4.75-8.6-6.93-13.29-3.57-7.71-5.33-10.58-6.48-10.58-.56 0-5.13-2.32-7.13-3.61-6.07-3.93-12.71-11.29-13.07-14.5a4.43 4.43 0 0 1 4.23-4.9c2 0 3.1.72 4.84 3.22a32 32 0 0 0 21.15 13.2c2.67.44 7.8.37 10.53-.14a32.26 32.26 0 0 0 20.4-13.37c1.03-1.53 1.54-2.03 2.49-2.45 4.24-1.88 8.03 2.38 5.7 6.39-2.48 4.25-7.45 9.31-12.15 12.36a73.6 73.6 0 0 1-5.27 2.87c-3.7 1.86-3.7 1.86-9.4 13.2-3.12 6.23-5.91 11.5-6.2 11.7-.7.5-2 .46-2.7-.1zm-1.62-32.74a14.14 14.14 0 0 1-11.16-13.87c.01-5.46 2.95-10.13 7.97-12.68 2.5-1.27 4.69-1.62 8.14-1.32 3.53.32 7.31 2.64 9.6 5.9a14.15 14.15 0 0 1-8.7 21.98c-2.2.47-3.66.46-5.85-.01z" style="fill:#000;fill-opacity:1" transform="translate(-62.88 -95.09)"/>
  <path d="M119.45-25.2a70.3 70.3 0 0 1-21.1-5.46c-5.03-2.2-11.56-6.12-14.17-8.52-1.27-1.16-1.37-1.36-1.48-2.7-.1-1.2-.01-1.59.5-2.34a4.42 4.42 0 0 1 3.33-1.87c.86 0 .86 0 .86-1.5 0-3.87 3.53-5.52 7.11-3.31 1.66 1.02 1.89 1.03 1.89.15 0-1.08.8-2.47 1.66-2.92 1.3-.68 2.39-.56 3.94.42 7 4.42 14 7.07 21.03 7.96 2.9.37 9.7.36 12.75-.02 2.54-.32 6.73-1.18 7.65-1.58.33-.14.6-.42.6-.64 0-.4-.3-.53-1.86-.81-3.59-.66-11.07-3.43-16.16-6-2.74-1.37-3.23-1.71-3.8-2.7a4.92 4.92 0 0 1 1.37-6.61c1.6-1.14 2.92-1.18 6.05-.22 1.44.45 3.34.99 4.2 1.2 7.06 1.73 17.83 1.69 25.2-.09a32.88 32.88 0 0 0 24.35-23.73c.65-2.41.7-3 .7-8.02.01-5.96-.33-8.8-1.72-14.22a51.54 51.54 0 0 0-4.65-11.96 55.17 55.17 0 0 0-11.49-15.5c-8.55-8.22-18.65-13.3-30.8-15.53-4.25-.78-14.88-.85-19.04-.13-15.45 2.7-28.02 10.48-37.42 23.2a61.78 61.78 0 0 0-11.02 27.39c-.6 4.34-.4 13.23.38 17.6a57.32 57.32 0 0 0 10.14 23.6c1.9 2.56 2.33 3.5 2.33 5.1a5.22 5.22 0 0 1-5.3 5.16c-2.46 0-3.7-1.02-6.92-5.69C58.8-69.6 55-86.18 57.5-103.68a68.9 68.9 0 0 1 3.29-13c7.7-22.1 26.1-39.12 48.16-44.53a70.23 70.23 0 0 1 35.19.45 68.91 68.91 0 0 1 47.31 44.95c4.67 14.3 4.72 29.65.14 43.33-4.51 13.5-12.48 24.4-24.36 33.34a70.73 70.73 0 0 1-40.42 14.08c-2.7.05-6-.01-7.37-.14zm5.07-46.23c-.46-.37-4.76-8.6-6.93-13.3-3.58-7.7-5.33-10.58-6.49-10.58-.55 0-5.12-2.31-7.13-3.61-6.07-3.93-12.7-11.29-13.07-14.5-.28-2.53 1.76-4.9 4.24-4.9 2 0 3.09.72 4.84 3.23a32 32 0 0 0 21.15 13.18c2.66.45 7.8.39 10.52-.12a32.26 32.26 0 0 0 20.41-13.38c1.03-1.52 1.54-2.03 2.48-2.45a4.42 4.42 0 0 1 5.7 6.39c-2.47 4.25-7.45 9.32-12.14 12.36a73.6 73.6 0 0 1-5.28 2.88c-3.7 1.85-3.7 1.85-9.39 13.19-3.13 6.24-5.92 11.5-6.2 11.7-.7.5-2.01.46-2.71-.1zm-1.63-32.75a14.14 14.14 0 0 1-11.15-13.87c0-5.45 2.95-10.13 7.96-12.67 2.51-1.28 4.7-1.63 8.14-1.32 3.53.31 7.32 2.64 9.6 5.89a14.15 14.15 0 0 1-8.7 21.99c-2.19.46-3.65.46-5.85-.02z" style="fill:#fff;fill-opacity:1" transform="translate(-62.88 -95.09)"/>
</svg>
